<svg width="512" height="544" viewBox="0 0 512 544" fill="none" xmlns="http://www.w3.org/2000/svg">
<g clip-path="url(#clip0_12_2)">
<path d="M294.42 335.5L288 335.5L50.7101 335.5C50.6083 335.5 50.506 335.52 50.3903 335.572C50.2615 335.631 50.1405 335.72 50.0513 335.818C50.0407 335.83 50.0313 335.841 50.023 335.851C65.8564 447.249 163.217 532.332 279.844 528.369C399.538 524.296 497.986 420.954 496.481 301.164M294.42 335.5L511.973 300.97L496.481 301.164M294.42 335.5L298.96 330.961M294.42 335.5L298.96 330.961M496.481 301.164C495.893 254.108 480.768 210.648 455.441 174.866M496.481 301.164L455.441 174.866M298.96 330.961L454.83 175.101L454.83 175.1M298.96 330.961L454.83 175.1M454.83 175.1C454.91 175.02 454.998 174.964 455.107 174.924C455.218 174.883 455.338 174.864 455.441 174.866M454.83 175.1L455.441 174.866M49.9965 335.664C49.9969 335.666 49.9973 335.669 49.9976 335.671L49.9965 335.664ZM15.5128 256.13C23.2805 144.498 112.502 55.2778 224.135 47.5124C224.153 47.5265 224.175 47.545 224.199 47.5688C224.291 47.6584 224.374 47.7775 224.43 47.9055C224.48 48.0228 224.5 48.1283 224.5 48.23L224.5 256.5L16.2401 256.5C16.1381 256.5 16.0311 256.48 15.9115 256.429C15.7813 256.372 15.6603 256.288 15.5693 256.194C15.5455 256.17 15.527 256.148 15.5128 256.13ZM303.5 216.08L303.5 16.21C303.5 16.1083 303.52 16.0063 303.572 15.8912C303.63 15.7629 303.719 15.6423 303.817 15.5533C303.83 15.5414 303.842 15.531 303.854 15.522C355.382 22.8469 401.255 47.6774 435.339 83.8139C435.34 83.8308 435.34 83.851 435.339 83.8747C435.335 83.9818 435.309 84.1079 435.257 84.2291C435.209 84.3428 435.145 84.4344 435.07 84.5098L303.5 216.08ZM455.305 174.674L455.308 174.678C455.307 174.676 455.306 174.675 455.305 174.674Z" stroke="black" stroke-width="31"/>
</g>
<defs>
<clipPath id="clip0_12_2">
<rect width="544" height="512" fill="white" transform="translate(0 544) rotate(-90)"/>
</clipPath>
</defs>
</svg>
