<svg width="87" height="32" viewBox="0 0 87 32" fill="none" xmlns="http://www.w3.org/2000/svg">
<path d="M10.8501 5.625V28.375M7.91902 8.0625C8.80363 8.59567 9.81726 8.87665 10.8501 8.875C11.883 8.87665 12.8966 8.59567 13.7812 8.0625M13.7812 25.9375C12.896 25.4058 11.8828 25.125 10.8501 25.125C9.81748 25.125 8.80428 25.4058 7.91902 25.9375M0.999063 11.3125L20.7012 22.6875M1.645 15.0703C2.54824 14.5694 3.29816 13.8322 3.81441 12.9376C4.33066 12.043 4.59379 11.0249 4.57559 9.99219M20.0552 18.9297C19.152 19.4306 18.4021 20.1678 17.8858 21.0624C17.3696 21.957 17.1064 22.9751 17.1246 24.0078M20.7012 11.3125L0.999063 22.6875M20.0552 15.0703C19.152 14.5694 18.4021 13.8322 17.8858 12.9376C17.3696 12.043 17.1064 11.0249 17.1246 9.99219M1.645 18.9297C2.54824 19.4306 3.29816 20.1678 3.81441 21.0624C4.33066 21.957 4.59379 22.9751 4.57559 24.0078" stroke="#96A1F8" stroke-width="1.625" stroke-linecap="round" stroke-linejoin="round"/>
<path d="M36.5406 23.189C35.6586 23.189 34.8676 23.042 34.1676 22.748C33.4676 22.44 32.9146 22.02 32.5086 21.488C32.1026 20.942 31.8786 20.319 31.8366 19.619H33.8106C33.8666 20.193 34.1326 20.662 34.6086 21.026C35.0986 21.39 35.7356 21.572 36.5196 21.572C37.2476 21.572 37.8216 21.411 38.2416 21.089C38.6616 20.767 38.8716 20.361 38.8716 19.871C38.8716 19.367 38.6476 18.996 38.1996 18.758C37.7516 18.506 37.0586 18.261 36.1206 18.023C35.2666 17.799 34.5666 17.575 34.0206 17.351C33.4886 17.113 33.0266 16.77 32.6346 16.322C32.2566 15.86 32.0676 15.258 32.0676 14.516C32.0676 13.928 32.2426 13.389 32.5926 12.899C32.9426 12.409 33.4396 12.024 34.0836 11.744C34.7276 11.45 35.4626 11.303 36.2886 11.303C37.5626 11.303 38.5916 11.625 39.3756 12.269C40.1596 12.913 40.5796 13.795 40.6356 14.915H38.7246C38.6826 14.313 38.4376 13.83 37.9896 13.466C37.5556 13.102 36.9676 12.92 36.2256 12.92C35.5396 12.92 34.9936 13.067 34.5876 13.361C34.1816 13.655 33.9786 14.04 33.9786 14.516C33.9786 14.894 34.0976 15.209 34.3356 15.461C34.5876 15.699 34.8956 15.895 35.2596 16.049C35.6376 16.189 36.1556 16.35 36.8136 16.532C37.6396 16.756 38.3116 16.98 38.8296 17.204C39.3476 17.414 39.7886 17.736 40.1526 18.17C40.5306 18.604 40.7266 19.171 40.7406 19.871C40.7406 20.501 40.5656 21.068 40.2156 21.572C39.8656 22.076 39.3686 22.475 38.7246 22.769C38.0946 23.049 37.3666 23.189 36.5406 23.189ZM49.2553 11.282C50.6553 11.282 51.7893 11.709 52.6573 12.563C53.5253 13.403 53.9593 14.621 53.9593 16.217V23H52.0693V16.49C52.0693 15.342 51.7823 14.467 51.2083 13.865C50.6343 13.249 49.8503 12.941 48.8563 12.941C47.8483 12.941 47.0433 13.256 46.4413 13.886C45.8533 14.516 45.5593 15.433 45.5593 16.637V23H43.6483V11.492H45.5593V13.13C45.9373 12.542 46.4483 12.087 47.0923 11.765C47.7503 11.443 48.4713 11.282 49.2553 11.282ZM86.2635 11.492L82.6725 23H80.6985L77.9265 13.865L75.1545 23H73.1805L69.5685 11.492H71.5215L74.1675 21.152L77.0235 11.492H78.9765L81.7695 21.173L84.3735 11.492H86.2635Z" fill="black"/>
<path d="M62.3099 23.189C61.2319 23.189 60.2519 22.944 59.3699 22.454C58.5019 21.964 57.8159 21.271 57.3119 20.375C56.8219 19.465 56.5769 18.415 56.5769 17.225C56.5769 16.049 56.8289 15.013 57.3329 14.117C57.8509 13.207 58.5509 12.514 59.4329 12.038C60.3149 11.548 61.3019 11.303 62.3939 11.303C63.4859 11.303 64.4729 11.548 65.3549 12.038C66.2369 12.514 66.9299 13.2 67.4339 14.096C67.9519 14.992 68.2109 16.035 68.2109 17.225C68.2109 18.415 67.9449 19.465 67.4129 20.375C66.8949 21.271 66.1879 21.964 65.2919 22.454C64.3959 22.944 63.4019 23.189 62.3099 23.189ZM62.3099 21.509C62.9959 21.509 63.6399 21.348 64.2419 21.026C64.8439 20.704 65.3269 20.221 65.6909 19.577C66.0689 18.933 66.2579 18.149 66.2579 17.225C66.2579 16.301 66.0759 15.517 65.7119 14.873C65.3479 14.229 64.8719 13.753 64.2839 13.445C63.6959 13.123 63.0589 12.962 62.3729 12.962C61.6729 12.962 61.0289 13.123 60.4409 13.445C59.8669 13.753 59.4049 14.229 59.0549 14.873C58.7049 15.517 58.5299 16.301 58.5299 17.225C58.5299 18.163 58.6979 18.954 59.0339 19.598C59.3839 20.242 59.8459 20.725 60.4199 21.047C60.9939 21.355 61.6239 21.509 62.3099 21.509Z" fill="#96A1F8"/>
</svg>
